<?xml version="1.0" encoding="utf-8"?>
<!-- Generator: Adobe Illustrator 17.0.0, SVG Export Plug-In . SVG Version: 6.00 Build 0)  -->
<!DOCTYPE svg PUBLIC "-//W3C//DTD SVG 1.1//EN" "http://www.w3.org/Graphics/SVG/1.1/DTD/svg11.dtd">
<svg version="1.1" id="Capa_1" xmlns="http://www.w3.org/2000/svg" xmlns:xlink="http://www.w3.org/1999/xlink" x="0px" y="0px"
	 width="1042.857px" height="991.837px" viewBox="0 0 1042.857 991.837" style="enable-background:new 0 0 1042.857 991.837;"
	 xml:space="preserve">
<style type="text/css">
	.st0{fill:#D1DA28;}
	.st1{fill:none;stroke:#D1DA28;stroke-miterlimit:10;}
</style>
<g>
	<g>
		<g>
			<g>
				<g>
					<path d="M352.138,813.417H162.253c-36.272,0-66.288-28.532-66.288-64.798V160.058c0-36.266,30.016-64.553,66.288-64.553
						h459.539c36.28,0,65.878,28.287,65.878,64.553v493.223l84.909-100.94V97.058c0-47.715-37.742-86.385-85.366-86.385H93.46
						c-45.765,0-82.313,37.148-82.313,82.914v720.378c0,47.715,38.116,86.509,85.875,86.509h333.394l-39.417-34.196
						C373.764,851.326,360.809,832.995,352.138,813.417z"/>
				</g>
				<g>
					<path class="st0" d="M586.456,204.302H205.324c-23.385,0-42.295,19.015-42.295,42.416c0,23.37,18.909,42.416,42.295,42.416
						h381.086c23.446,0,42.234-19.047,42.234-42.416C628.705,223.348,609.856,204.302,586.456,204.302z"/>
				</g>
				<g>
					<path class="st0" d="M586.456,345.678H205.324c-23.385,0-42.295,19.001-42.295,42.448c0,23.293,18.909,42.385,42.295,42.385
						h381.086c23.446,0,42.234-19.092,42.234-42.385C628.705,364.68,609.856,345.678,586.456,345.678z"/>
				</g>
				<g>
					<path class="st0" d="M586.456,487.118H205.324c-23.385,0-42.295,17.965-42.295,41.366c0,23.37,18.909,41.336,42.295,41.336
						h381.086c23.446,0,42.234-18.072,42.234-41.336C628.705,505.082,609.856,487.118,586.456,487.118z"/>
				</g>
				<g>
					<path class="st0" d="M162.992,663.345c0,23.401,18.947,41.275,42.295,41.275h142.222c5.923-15.225,15.104-32.902,27.602-47.594
						c13.11-15.239,28.585-26.369,45.408-35.139H205.324C181.939,621.979,162.992,639.975,162.992,663.345z"/>
				</g>
				<g>
					<path class="st1" d="M586.456,621.979H554.62c10.475,4.384,20.401,11.814,29.522,19.655l42.248,36.16
						c1.569-4.354,2.437-9.014,2.437-14.098C628.705,640.493,609.856,621.979,586.456,621.979z"/>
				</g>
				<g>
					<path d="M1005.641,508.615c-31.074-26.644-77.922-22.837-104.503,8.374l-243.446,285.39L535.954,697.86
						c-31.134-26.614-77.92-23.081-104.503,7.946c-26.689,31.166-23.074,77.83,7.964,104.504l178.068,152.948
						c13.612,11.51,30.633,17.905,48.309,17.905c2.01,0,3.79-0.031,5.846-0.229c19.549-1.508,37.864-10.84,50.592-25.807
						l291.844-342.04C1040.505,581.969,1036.851,535.274,1005.641,508.615z"/>
				</g>
			</g>
		</g>
	</g>
</g>
</svg>
